<?xml version="1.0" encoding="UTF-8" standalone="no"?>
<!-- Created with Inkscape (http://www.inkscape.org/) -->

<svg
   xmlns:dc="http://purl.org/dc/elements/1.1/"
   xmlns:cc="http://creativecommons.org/ns#"
   xmlns:rdf="http://www.w3.org/1999/02/22-rdf-syntax-ns#"
   xmlns:svg="http://www.w3.org/2000/svg"
   xmlns="http://www.w3.org/2000/svg"
   xmlns:sodipodi="http://sodipodi.sourceforge.net/DTD/sodipodi-0.dtd"
   xmlns:inkscape="http://www.inkscape.org/namespaces/inkscape"
   width="58.931942"
   height="105.68451"
   id="svg5294"
   version="1.1"
   inkscape:version="0.48.2 r9819"
   sodipodi:docname="faceLine1.svg">
  <defs
     id="defs5296" />
  <sodipodi:namedview
     id="base"
     pagecolor="#ffffff"
     bordercolor="#666666"
     borderopacity="1.0"
     inkscape:pageopacity="0.0"
     inkscape:pageshadow="2"
     inkscape:zoom="0.9899495"
     inkscape:cx="91.196604"
     inkscape:cy="35.024053"
     inkscape:document-units="px"
     inkscape:current-layer="layer1"
     showgrid="false"
     inkscape:window-width="1207"
     inkscape:window-height="671"
     inkscape:window-x="154"
     inkscape:window-y="0"
     inkscape:window-maximized="0"
     showborder="true"
     fit-margin-top="0"
     fit-margin-left="0"
     fit-margin-right="0"
     fit-margin-bottom="0" />
  <metadata
     id="metadata5299">
    <rdf:RDF>
      <cc:Work
         rdf:about="">
        <dc:format>image/svg+xml</dc:format>
        <dc:type
           rdf:resource="http://purl.org/dc/dcmitype/StillImage" />
        <dc:title></dc:title>
      </cc:Work>
    </rdf:RDF>
  </metadata>
  <g
     inkscape:label="Layer 1"
     inkscape:groupmode="layer"
     id="layer1"
     transform="translate(-143.75892,760.18096)">
    <g
       id="layer1-9"
       transform="matrix(0.78904718,0,0,0.77054083,493.67667,-1251.5452)">
      <path
         style="fill:none;stroke:#00ff00;stroke-width:0.64766288px;stroke-linecap:butt;stroke-linejoin:miter;stroke-opacity:1"
         id="path3022"
         d="m -421.43433,710.89743 c -3.6111,2.53652 -4.31533,-11.16436 0.10473,-20.55351 0.66031,-5.32255 0.20432,-15.2174 -2.30885,-23.99126 -2.59887,-5.29892 3.12788,-18.61842 7.57102,-15.8142 4.09275,0.87037 8.31244,2.72387 6.10289,6.40191 -7.90223,1.82478 -9.41817,5.34393 -9.15856,9.68554 -1.61737,5.40961 5.23067,6.87149 3.18951,8.26818 -1.20222,3.97467 -0.58732,0.45732 1.19127,2.21286 -1.08102,2.8515 1.13307,8.30013 0.87563,4.10214 0.74672,-3.35622 10.06698,-2.32474 11.60836,3.29197 1.85847,6.86972 2.89073,13.05083 5.02714,11.06181 -3.80816,4.00432 4.57797,-4.43008 5.24083,-1.74404 1.3,-1.3893 -1.56629,0.74526 -5.41417,2.24999 -0.54716,4.73737 0.63427,4.44407 0.23174,6.32433 -0.77987,1.32164 0.8539,0.92045 3.00964,0.69103 3.39728,-2.02213 -3.22982,-0.59723 -2.25892,-4.89489 1.97031,0.15669 2.47829,3.37796 2.97072,4.29903 3.80421,-3.50137 5.91313,-1.58485 9.4723,-4.47966 -1.44922,4.36074 -14.87329,6.69098 -10.54746,10.35507 2.72635,0.29291 10.75099,-1.78407 2.63939,4.76362 -1.81777,4.68633 8.10976,6.21501 2.88557,6.16433 -4.03225,0.29075 -12.74258,-1.64835 -20.50618,-10.6437 -2.27288,-0.36595 5.10812,8.42581 5.67754,9.57363 0.46517,6.66507 -4.37373,1.90146 3.1788,1.50393 4.68141,1.77181 7.03376,10.44131 0.64695,11.41039 -2.18587,0.23272 -4.74076,-3.15823 -1.78318,-0.1163 3.3628,5.95902 0.86296,20.02735 3.73181,26.14266 -2.87212,-9.72843 -15.0711,-14.86468 -13.30967,-17.6532 0.32352,-2.25028 -3.06871,-0.10744 -0.84925,4.95036 2.7096,4.86746 8.27573,13.86971 7.70877,16.24393 0.91241,-5.58356 -3.84237,-8.43911 -7.32026,-11.28943 -2.35722,-1.46504 -3.95379,-6.5922 -3.18739,-1.17472 -0.0915,6.36439 -2.7148,9.90779 -0.74481,16.08801 1.15194,2.2765 2.13775,5.92917 5.71188,10.24067 -3.83464,-2.60015 -5.56466,-7.57749 -7.67721,-11.70453 -1.8975,-2.99549 -8.83972,-15.0606 -7.34472,-6.24322 -3.69734,-6.59137 -0.77864,-2.49886 -5.65222,-5.5965 -4.14341,-3.92344 -6.64614,-4.10304 -6.58923,-9.46697 -0.7961,-2.37492 -5.93312,6.23661 -5.25283,13.33325 -2.7898,-10.51252 5.04019,-13.83825 4.57815,-31.16047 -2.37567,-6.7676 -1.03672,-18.34451 2.16242,-16.65442 3.71748,-3.37903 8.85797,20.89434 9.48078,14.31447 1.8212,-6.91687 -6.41357,-11.64373 -6.26305,-18.47348 -1.36612,-3.74447 4.83513,-12.52036 5.45044,-5.13042 -0.5764,8.74092 1.60365,17.33278 6.80342,24.9378 2.81094,3.3166 6.08825,4.05591 10.79556,2.68289 -5.17516,4.57417 -14.84522,4.89381 -16.02097,0.76096 -11.38321,-2.82371 -11.9998,-12.18878 -11.61426,-22.13026 5.27897,-13.54164 2.83907,-26.28337 8.82384,-46.6921 4.17687,-8.64795 7.14939,-15.95457 15.56552,-17.39458 3.29182,-3.04867 11.12974,-1.58584 13.96335,-1.492 4.012,0.29663 21.4869,4.52905 29.70322,23.07935 -1.24404,5.18633 -8.20563,-6.00521 -10.02122,-4.48652 5.96791,-4.40295 -21.92659,-6.24612 -14.65903,-4.92593 1.98201,0.98626 9.18096,5.32933 10.28587,9.19643 2.0145,4.62235 2.81737,4.75777 6.0887,9.99205 3.51238,8.03261 4.16343,14.13112 3.72413,23.05209"
         inkscape:connector-curvature="0" />
    </g>
  </g>
</svg>
