<?xml version="1.0" encoding="UTF-8" standalone="no"?>
<!-- Created with Inkscape (http://www.inkscape.org/) -->

<svg
   xmlns:dc="http://purl.org/dc/elements/1.1/"
   xmlns:cc="http://creativecommons.org/ns#"
   xmlns:rdf="http://www.w3.org/1999/02/22-rdf-syntax-ns#"
   xmlns:svg="http://www.w3.org/2000/svg"
   xmlns="http://www.w3.org/2000/svg"
   version="1.1"
   width="100"
   height="100"
   id="svg4370">
  <defs
     id="defs4372" />
  <metadata
     id="metadata4375">
    <rdf:RDF>
      <cc:Work
         rdf:about="">
        <dc:format>image/svg+xml</dc:format>
        <dc:type
           rdf:resource="http://purl.org/dc/dcmitype/StillImage" />
        <dc:title></dc:title>
      </cc:Work>
    </rdf:RDF>
  </metadata>
  <g
     transform="translate(0,-952.36218)"
     id="layer1">
    <path
       d="m 74.285713,169.50504 c 3.294824,16.33079 -20.388034,12.49839 -27.142853,5.47621 -18.305143,-19.02968 -3.488683,-48.82514 16.190426,-59.76192 35.20131,-19.563347 77.532404,3.52331 92.380984,37.85707 21.7909,50.38616 -10.49597,106.71841 -59.523703,125.00005 C 30.844315,302.443 -39.895524,260.6394 -61.428555,196.8861 -88.525678,116.65908 -37.069787,31.342905 41.428433,6.6479134 136.5003,-23.26103 236.47968,37.916636 264.28569,131.17154 297.0541,241.06922 226.11449,355.7627 118.09542,386.64786 -6.6168663,422.30601 -136.0569,341.57916 -169.99997,218.79096 -208.56824,79.271192 -118.03723,-64.937438 19.523579,-101.9235 173.84602,-143.41627 332.83889,-43.069213 372.8571,109.26669 417.2849,278.38841 307.11312,452.17707 140.00027,495.21928"
       transform="matrix(0.15133639,0,0,0.14083512,36.149541,973.57414)"
       id="path4378"
       style="fill:none;stroke:#000000;stroke-width:1px;stroke-linecap:butt;stroke-linejoin:miter;stroke-opacity:1" />
  </g>
</svg>
