<?xml version="1.0" encoding="UTF-8" standalone="no"?>
<!-- Created with Inkscape (http://www.inkscape.org/) -->

<svg
   xmlns:dc="http://purl.org/dc/elements/1.1/"
   xmlns:cc="http://creativecommons.org/ns#"
   xmlns:rdf="http://www.w3.org/1999/02/22-rdf-syntax-ns#"
   xmlns:svg="http://www.w3.org/2000/svg"
   xmlns="http://www.w3.org/2000/svg"
   version="1.1"
   width="30"
   height="35"
   id="svg5294">
  <metadata
     id="metadata8">
    <rdf:RDF>
      <cc:Work
         rdf:about="">
        <dc:format>image/svg+xml</dc:format>
        <dc:type
           rdf:resource="http://purl.org/dc/dcmitype/StillImage" />
        <dc:title></dc:title>
      </cc:Work>
    </rdf:RDF>
  </metadata>
  <defs
     id="defs5296" />
  <path
     d="m 9.8700747,6.261423 c -0.0092,1.530389 1.9810083,3.997056 0.2895003,4.87357 C 8.5361777,10.458178 7.1740867,8.3941322 5.2795201,9.0331241 -13.091794,34.315129 28.069322,42.323281 24.546545,15.757461 23.944249,12.055927 21.22703,8.4034152 17.766107,8.5678239 16.198053,8.6817515 14.699664,9.5716909 13.653052,10.919643"
     id="path5106"
     style="fill:none;stroke:#000000;stroke-width:0.71263754px;stroke-linecap:butt;stroke-linejoin:miter;stroke-opacity:1" />
  <path
     d="M 12.931862,10.371333 C 12.714284,8.2245067 12.215782,5.553691 13.843097,3.9185806 15.84733,1.9154497 18.522259,1.1751121 21.05484,0.45479821 20.001578,4.3001805 18.151769,8.3399687 14.722627,10.053333 c 0.119538,0.311095 0.466188,0.101192 0.643878,0.317923"
     id="path5127"
     style="fill:none;stroke:#000000;stroke-width:0.72313774px;stroke-linecap:butt;stroke-linejoin:miter;stroke-opacity:1" />
</svg>
