<?xml version="1.0" encoding="UTF-8" standalone="no"?>
<!-- Created with Inkscape (http://www.inkscape.org/) -->

<svg
   xmlns:dc="http://purl.org/dc/elements/1.1/"
   xmlns:cc="http://creativecommons.org/ns#"
   xmlns:rdf="http://www.w3.org/1999/02/22-rdf-syntax-ns#"
   xmlns:svg="http://www.w3.org/2000/svg"
   xmlns="http://www.w3.org/2000/svg"
   xmlns:sodipodi="http://sodipodi.sourceforge.net/DTD/sodipodi-0.dtd"
   xmlns:inkscape="http://www.inkscape.org/namespaces/inkscape"
   width="449.125"
   height="433.84839"
   id="svg5294"
   version="1.1"
   inkscape:version="0.48.2 r9819"
   sodipodi:docname="fish-line.svg"
   inkscape:export-filename="/Users/krtonga/bash/code/projects/krtonga.github.io/public/VERS2.png"
   inkscape:export-xdpi="200"
   inkscape:export-ydpi="200">
  <defs
     id="defs5296" />
  <sodipodi:namedview
     id="base"
     pagecolor="#ffffff"
     bordercolor="#666666"
     borderopacity="1.0"
     inkscape:pageopacity="0.0"
     inkscape:pageshadow="2"
     inkscape:zoom="0.25000001"
     inkscape:cx="595.33596"
     inkscape:cy="-345.41108"
     inkscape:document-units="px"
     inkscape:current-layer="layer1"
     showgrid="false"
     inkscape:window-width="1207"
     inkscape:window-height="671"
     inkscape:window-x="75"
     inkscape:window-y="0"
     inkscape:window-maximized="0"
     fit-margin-top="0"
     fit-margin-left="0"
     fit-margin-right="0"
     fit-margin-bottom="0" />
  <metadata
     id="metadata5299">
    <rdf:RDF>
      <cc:Work
         rdf:about="">
        <dc:format>image/svg+xml</dc:format>
        <dc:type
           rdf:resource="http://purl.org/dc/dcmitype/StillImage" />
        <dc:title></dc:title>
      </cc:Work>
    </rdf:RDF>
  </metadata>
  <g
     inkscape:label="Layer 1"
     inkscape:groupmode="layer"
     id="layer1"
     transform="translate(775.53125,-485.40162)">
    <path
       style="fill:none;stroke:#000000;stroke-width:1;stroke-linecap:butt;stroke-linejoin:miter;stroke-opacity:1;stroke-miterlimit:4;stroke-dasharray:none"
       d="m -697.23067,522.91712 c 0.33991,6.08254 11.30798,21.9177 6.83132,7.14537 -1.56663,-12.72208 5.64314,-23.2706 15.03934,-30.88559 2.49837,-2.02476 -15.56297,-6.69926 7.83496,-5.4378 7.01961,-4.9375 27.05515,-11.71683 30.07065,-5.04851 -4.45639,-0.2924 -8.05526,2.04027 -5.11255,5.03208 -9.14358,6.82979 -17.299,15.13506 -28.28496,19.21568 -10.40032,4.10195 -22.15118,7.93002 -33.30745,5.55503 l -1.43662,-1.105 -0.9204,-1.61405"
       id="path6341"
       inkscape:connector-curvature="0"
       sodipodi:nodetypes="ccsccccccc"
       inkscape:export-filename="/Users/krtonga/bash/code/projects/krtonga.github.io/public/VERS1bw.png"
       inkscape:export-xdpi="90"
       inkscape:export-ydpi="90" />
    <path
       sodipodi:nodetypes="ccsccccccc"
       inkscape:connector-curvature="0"
       id="path6372"
       d="m -664.6258,536.13248 c 0.22241,3.68316 7.39908,13.27181 4.4699,4.32673 -1.02509,-7.70359 3.69243,-14.09103 9.84059,-18.70213 1.63474,-1.22605 -10.18322,-4.0566 5.12659,-3.29275 4.5931,-2.9898 17.70282,-7.09488 19.67593,-3.05702 -2.91592,-0.17705 -5.27074,1.23545 -3.34526,3.04707 -5.98286,4.13564 -11.31914,9.16473 -18.50751,11.63566 -6.80517,2.48385 -14.49403,4.80186 -21.79384,3.36374 l -0.94001,-0.66911 -0.60224,-0.97736"
       style="fill:none;stroke:#000000;stroke-width:0.62945372;stroke-linecap:butt;stroke-linejoin:miter;stroke-opacity:1;stroke-miterlimit:4;stroke-dasharray:none"
       inkscape:export-filename="/Users/krtonga/bash/code/projects/krtonga.github.io/public/VERS1bw.png"
       inkscape:export-xdpi="90"
       inkscape:export-ydpi="90" />
    <path
       inkscape:export-ydpi="90"
       inkscape:export-xdpi="90"
       inkscape:export-filename="/Users/krtonga/bash/code/projects/krtonga.github.io/public/VERS1bw.png"
       sodipodi:nodetypes="ccsccccccc"
       inkscape:connector-curvature="0"
       id="path4427"
       d="m -765.80209,905.77426 c 0.33991,6.08254 11.30798,21.9177 6.83132,7.14537 -1.56663,-12.72208 5.64314,-23.2706 15.03934,-30.88559 2.49837,-2.02476 -15.56297,-6.69926 7.83496,-5.4378 7.01961,-4.9375 27.05515,-11.71683 30.07065,-5.04851 -4.45639,-0.2924 -8.05526,2.04027 -5.11255,5.03208 -9.14358,6.82979 -17.299,15.13506 -28.28496,19.21568 -10.40032,4.10195 -22.15118,7.93002 -33.30745,5.55503 l -1.43662,-1.105 -0.9204,-1.61405"
       style="fill:none;stroke:#000000;stroke-width:1;stroke-linecap:butt;stroke-linejoin:miter;stroke-miterlimit:4;stroke-opacity:1;stroke-dasharray:none;stroke-dashoffset:0" />
    <path
       inkscape:export-ydpi="90"
       inkscape:export-xdpi="90"
       inkscape:export-filename="/Users/krtonga/bash/code/projects/krtonga.github.io/public/VERS1bw.png"
       style="fill:none;stroke:#000000;stroke-width:0.62945372;stroke-linecap:butt;stroke-linejoin:miter;stroke-opacity:1;stroke-miterlimit:4;stroke-dasharray:none"
       d="m -366.05437,731.84676 c 0.22241,3.68316 7.39908,13.27181 4.4699,4.32673 -1.02509,-7.70359 3.69243,-14.09103 9.84059,-18.70213 1.63474,-1.22605 -10.18322,-4.0566 5.12659,-3.29275 4.5931,-2.9898 17.70282,-7.09488 19.67593,-3.05702 -2.91592,-0.17705 -5.27074,1.23545 -3.34526,3.04707 -5.98286,4.13564 -11.31914,9.16473 -18.50751,11.63566 -6.80517,2.48385 -14.49403,4.80186 -21.79384,3.36374 l -0.94001,-0.66911 -0.60224,-0.97736"
       id="path4429"
       inkscape:connector-curvature="0"
       sodipodi:nodetypes="ccsccccccc" />
    <text
       xml:space="preserve"
       style="font-size:40px;font-style:normal;font-weight:normal;line-height:125%;letter-spacing:0px;word-spacing:0px;fill:#000000;fill-opacity:1;stroke:none;font-family:Sans"
       x="-35"
       y="500"
       id="text3998"
       sodipodi:linespacing="125%"
       transform="translate(0,-432.63782)"><tspan
         sodipodi:role="line"
         id="tspan4000"
         x="-35"
         y="500" /></text>
  </g>
</svg>
