<?xml version="1.0" encoding="UTF-8" standalone="no"?>
<!-- Created with Inkscape (http://www.inkscape.org/) -->

<svg
   xmlns:dc="http://purl.org/dc/elements/1.1/"
   xmlns:cc="http://creativecommons.org/ns#"
   xmlns:rdf="http://www.w3.org/1999/02/22-rdf-syntax-ns#"
   xmlns:svg="http://www.w3.org/2000/svg"
   xmlns="http://www.w3.org/2000/svg"
   xmlns:sodipodi="http://sodipodi.sourceforge.net/DTD/sodipodi-0.dtd"
   xmlns:inkscape="http://www.inkscape.org/namespaces/inkscape"
   width="24.040472"
   height="231.90305"
   id="svg5294"
   version="1.1"
   inkscape:version="0.48.2 r9819"
   sodipodi:docname="designVERS1.b.svg"
   inkscape:export-filename="/Users/krtonga/bash/code/projects/krtonga.github.io/public/VERS2.png"
   inkscape:export-xdpi="200"
   inkscape:export-ydpi="200">
  <defs
     id="defs5296" />
  <sodipodi:namedview
     id="base"
     pagecolor="#ffffff"
     bordercolor="#666666"
     borderopacity="1.0"
     inkscape:pageopacity="0.0"
     inkscape:pageshadow="2"
     inkscape:zoom="1"
     inkscape:cx="287.54685"
     inkscape:cy="15.172887"
     inkscape:document-units="px"
     inkscape:current-layer="layer1"
     showgrid="false"
     inkscape:window-width="1207"
     inkscape:window-height="671"
     inkscape:window-x="76"
     inkscape:window-y="21"
     inkscape:window-maximized="0"
     fit-margin-top="0"
     fit-margin-left="0"
     fit-margin-right="0"
     fit-margin-bottom="0" />
  <metadata
     id="metadata5299">
    <rdf:RDF>
      <cc:Work
         rdf:about="">
        <dc:format>image/svg+xml</dc:format>
        <dc:type
           rdf:resource="http://purl.org/dc/dcmitype/StillImage" />
        <dc:title></dc:title>
      </cc:Work>
    </rdf:RDF>
  </metadata>
  <g
     inkscape:label="Layer 1"
     inkscape:groupmode="layer"
     id="layer1"
     transform="translate(202.7681,-468.84696)">
    <path
       sodipodi:nodetypes="ccccc"
       inkscape:connector-curvature="0"
       id="path6275"
       d="m -191.54588,514.69247 c 9.15956,-0.91276 -3.98463,-10.32544 -5.12251,-0.42819 -0.034,64.44305 -0.22302,92.63799 -0.0405,138.99852 5.43798,13.01781 9.5446,7.70461 14.29143,10.58345 7.20056,-2.10914 0.95975,-14.11805 -0.88029,-5.87779"
       style="fill:none;stroke:#000000;stroke-width:0.59841985px;stroke-linecap:butt;stroke-linejoin:miter;stroke-opacity:1"
       inkscape:export-filename="/Users/krtonga/bash/code/projects/krtonga.github.io/public/VERS1bw.png"
       inkscape:export-xdpi="90"
       inkscape:export-ydpi="90" />
    <path
       style="fill:none;stroke:#000000;stroke-width:0.73291391px;stroke-linecap:butt;stroke-linejoin:miter;stroke-opacity:1"
       d="m -197.1533,476.58466 c 9.15956,-1.36913 -3.98463,-15.48824 -5.1225,-0.64227 -0.034,96.66516 -0.22303,138.95785 -0.0405,208.49907 5.43799,19.52685 9.54461,11.55699 14.29143,15.87527 7.20057,-3.16374 0.95976,-21.1772 -0.88029,-8.81674"
       id="path6277"
       inkscape:connector-curvature="0"
       sodipodi:nodetypes="ccccc"
       inkscape:export-filename="/Users/krtonga/bash/code/projects/krtonga.github.io/public/VERS1bw.png"
       inkscape:export-xdpi="90"
       inkscape:export-ydpi="90" />
    <path
       inkscape:export-ydpi="90"
       inkscape:export-xdpi="90"
       inkscape:export-filename="/Users/krtonga/bash/code/projects/krtonga.github.io/public/VERS1bw.png"
       style="fill:none;stroke:#f9f9f9;stroke-width:3.0647409;stroke-linecap:butt;stroke-linejoin:miter;stroke-miterlimit:4;stroke-opacity:1;stroke-dasharray:6.12948213, 3.06474106;stroke-dashoffset:0"
       d="m 336.19449,516.87106 c 25.50865,-4.65781 -25.57657,27.76738 3.59718,38.68971 22.60853,3.95761 46.92201,-54.76472 80.79899,-36.01076 -8.44519,5.04047 -14.28109,20.83298 9.50753,33.36668 30.95084,13.5308 56.71577,-49.50219 87.22613,-34.39353 -18.51854,12.79988 -5.34941,50.67506 24.84011,37.17972 21.97497,-12.17928 35.87384,-48.38639 66.30196,-36.40587 -14.65369,16.30762 5.42882,48.00279 32.27472,38.7846 27.63165,-1.43491 28.25758,-48.63333 71.12535,-41.77108 -16.74516,14.35286 1.21605,48.63086 33.40422,43.87025 33.72854,-5.14423 52.27893,-54.63561 82.9582,-42.23251 -13.8129,32.53876 22.16141,57.52049 45.7494,33.17374 13.87731,-11.18524 29.08973,-44.85696 58.39245,-31.80949 -12.38334,7.75759 -4.92554,48.83384 10.88085,40.43917"
       id="path4421"
       inkscape:connector-curvature="0"
       sodipodi:nodetypes="cccccccccccccc" />
    <path
       style="fill:none;stroke:#e6e6e6;stroke-width:0.66591555;stroke-linecap:butt;stroke-linejoin:miter;stroke-miterlimit:4;stroke-opacity:1;stroke-dasharray:0.66591556, 1.33183113;stroke-dashoffset:0"
       d="m -94.400323,481.92194 c 22.246695,-2.61302 -22.305937,15.57749 3.137184,21.7049 19.717433,2.22022 40.921789,-30.72296 70.466713,-20.20201 -7.365249,2.8277 -12.45487,11.68729 8.291742,18.71868 26.992951,7.59078 49.463151,-27.77068 76.071961,-19.29474 -16.15045,7.18072 -4.66535,28.42867 21.66364,20.85779 19.164903,-6.83256 31.286413,-27.14472 57.823503,-20.42366 -12.77981,9.14856 4.73461,26.92953 28.14755,21.75813 24.09821,-0.80498 24.6441,-27.28326 62.03009,-23.43354 -14.60384,8.05194 1.06055,27.28187 29.1326,24.61118 29.41546,-2.88591 45.59369,-30.65054 72.34981,-23.69241 -12.04656,18.25422 19.32748,32.26895 39.89913,18.61044 12.10272,-6.27491 25.36984,-25.16472 50.92543,-17.8451 -10.7998,4.352 -4.29568,27.39574 9.48945,22.68634"
       id="path4423"
       inkscape:connector-curvature="0"
       sodipodi:nodetypes="cccccccccccccc"
       inkscape:export-filename="/Users/krtonga/bash/code/projects/krtonga.github.io/public/VERS1bw.png"
       inkscape:export-xdpi="90"
       inkscape:export-ydpi="90" />
    <text
       xml:space="preserve"
       style="font-size:40px;font-style:normal;font-weight:normal;line-height:125%;letter-spacing:0px;word-spacing:0px;fill:#000000;fill-opacity:1;stroke:none;font-family:Sans"
       x="-35"
       y="500"
       id="text3998"
       sodipodi:linespacing="125%"
       transform="translate(0,-432.63782)"><tspan
         sodipodi:role="line"
         id="tspan4000"
         x="-35"
         y="500" /></text>
  </g>
</svg>
