<?xml version="1.0" encoding="UTF-8" standalone="no"?>
<!-- Created with Inkscape (http://www.inkscape.org/) -->

<svg
   xmlns:dc="http://purl.org/dc/elements/1.1/"
   xmlns:cc="http://creativecommons.org/ns#"
   xmlns:rdf="http://www.w3.org/1999/02/22-rdf-syntax-ns#"
   xmlns:svg="http://www.w3.org/2000/svg"
   xmlns="http://www.w3.org/2000/svg"
   xmlns:sodipodi="http://sodipodi.sourceforge.net/DTD/sodipodi-0.dtd"
   xmlns:inkscape="http://www.inkscape.org/namespaces/inkscape"
   width="334.6875"
   height="591.65625"
   id="svg5294"
   version="1.1"
   inkscape:version="0.48.2 r9819"
   sodipodi:docname="net.svg"
   inkscape:export-filename="/Users/krtonga/bash/code/projects/krtonga.github.io/public/VERS2.png"
   inkscape:export-xdpi="200"
   inkscape:export-ydpi="200">
  <metadata
     id="metadata28">
    <rdf:RDF>
      <cc:Work
         rdf:about="">
        <dc:format>image/svg+xml</dc:format>
        <dc:type
           rdf:resource="http://purl.org/dc/dcmitype/StillImage" />
      </cc:Work>
    </rdf:RDF>
  </metadata>
  <sodipodi:namedview
     pagecolor="#ffffff"
     bordercolor="#666666"
     borderopacity="1"
     objecttolerance="10"
     gridtolerance="10"
     guidetolerance="10"
     inkscape:pageopacity="0"
     inkscape:pageshadow="2"
     inkscape:window-width="640"
     inkscape:window-height="480"
     id="namedview26"
     showgrid="false"
     inkscape:zoom="0.28205094"
     inkscape:cx="167.34375"
     inkscape:cy="154.00977"
     inkscape:window-x="0"
     inkscape:window-y="0"
     inkscape:window-maximized="0"
     inkscape:current-layer="svg5294" />
  <defs
     id="defs5296" />
  <path
     inkscape:export-ydpi="90"
     inkscape:export-xdpi="90"
     inkscape:export-filename="/Users/krtonga/bash/code/projects/krtonga.github.io/public/VERS1bw.png"
     sodipodi:nodetypes="ccsccccccc"
     inkscape:connector-curvature="0"
     id="path4427"
     d="m 143.99493,381.15591 c 0.33991,6.08254 11.30798,21.9177 6.83132,7.14537 -1.56663,-12.72208 5.64314,-23.2706 15.03934,-30.88559 2.49837,-2.02476 -15.56297,-6.69926 7.83496,-5.4378 7.01961,-4.9375 27.05515,-11.71683 30.07065,-5.04851 -4.45639,-0.2924 -8.05526,2.04027 -5.11255,5.03208 -9.14358,6.82979 -17.299,15.13506 -28.28496,19.21568 -10.40032,4.10195 -22.15118,7.93002 -33.30745,5.55503 l -1.43662,-1.105 -0.9204,-1.61405"
     style="fill:none;stroke:#000000;stroke-width:1;stroke-linecap:butt;stroke-linejoin:miter;stroke-miterlimit:4;stroke-opacity:1;stroke-dasharray:none;stroke-dashoffset:0" />
  <path
     style="fill:none;stroke:#000000;stroke-width:1;stroke-linecap:butt;stroke-linejoin:miter;stroke-miterlimit:4;stroke-opacity:1;stroke-dasharray:none;stroke-dashoffset:0"
     d="M 155.26032,8.5564593 C 138.41546,142.63674 50.198799,254.82418 30.523929,388.30364 11.346429,449.64119 6.3880894,514.62156 9.5460794,578.55646"
     id="path4431"
     inkscape:connector-curvature="0"
     inkscape:export-filename="/Users/krtonga/bash/code/projects/krtonga.github.io/public/VERS1bw.png"
     inkscape:export-xdpi="90"
     inkscape:export-ydpi="90" />
  <path
     style="fill:none;stroke:#000000;stroke-width:1;stroke-linecap:butt;stroke-linejoin:miter;stroke-miterlimit:4;stroke-opacity:1;stroke-dasharray:none;stroke-dashoffset:0"
     d="M 153.83175,17.127889 C 143.64012,208.52407 7.7893494,326.92755 60.974609,591.41366"
     id="path4440"
     inkscape:connector-curvature="0"
     sodipodi:nodetypes="cc"
     inkscape:export-filename="/Users/krtonga/bash/code/projects/krtonga.github.io/public/VERS1bw.png"
     inkscape:export-xdpi="90"
     inkscape:export-ydpi="90" />
  <path
     style="fill:none;stroke:#000000;stroke-width:1;stroke-linecap:butt;stroke-linejoin:miter;stroke-miterlimit:4;stroke-opacity:1;stroke-dasharray:none;stroke-dashoffset:0"
     d="M 155.26033,4.2707493 C 174.60062,189.40403 50.847509,368.95528 95.611279,524.85816 c 8.857271,23.4599 27.624661,43.1415 51.077611,52.2698"
     id="path4462"
     inkscape:connector-curvature="0"
     sodipodi:nodetypes="ccc"
     inkscape:export-filename="/Users/krtonga/bash/code/projects/krtonga.github.io/public/VERS1bw.png"
     inkscape:export-xdpi="90"
     inkscape:export-ydpi="90" />
  <path
     style="fill:none;stroke:#000000;stroke-width:1;stroke-linecap:butt;stroke-linejoin:miter;stroke-miterlimit:4;stroke-opacity:1;stroke-dasharray:none;stroke-dashoffset:0"
     d="m 153.83175,125.69931 c -14.58863,119.27573 -64.438521,246.52036 -5.7038,362.01937 15.20079,40.29598 35.36515,80.85708 69.98952,107.98068"
     id="path4487"
     inkscape:connector-curvature="0"
     inkscape:export-filename="/Users/krtonga/bash/code/projects/krtonga.github.io/public/VERS1bw.png"
     inkscape:export-xdpi="90"
     inkscape:export-ydpi="90" />
  <path
     style="fill:none;stroke:#000000;stroke-width:1;stroke-linecap:butt;stroke-linejoin:miter;stroke-miterlimit:4;stroke-opacity:1;stroke-dasharray:none;stroke-dashoffset:0"
     d="m 143.83175,207.12784 c -16.08726,137.38824 33.91417,293.71982 155.74475,368.67842 12.59435,6.5131 26.06048,11.3816 39.96954,14.1788"
     id="path4497"
     inkscape:connector-curvature="0"
     inkscape:export-filename="/Users/krtonga/bash/code/projects/krtonga.github.io/public/VERS1bw.png"
     inkscape:export-xdpi="90"
     inkscape:export-ydpi="90" />
  <path
     style="fill:none;stroke:#000000;stroke-width:1;stroke-linecap:butt;stroke-linejoin:miter;stroke-miterlimit:4;stroke-opacity:1;stroke-dasharray:none;stroke-dashoffset:0"
     d="m 5.2603294,497.12786 c 66.8433496,51.6534 162.3645906,86.7016 241.4285406,41.4286"
     id="path4509"
     inkscape:connector-curvature="0"
     inkscape:export-filename="/Users/krtonga/bash/code/projects/krtonga.github.io/public/VERS1bw.png"
     inkscape:export-xdpi="90"
     inkscape:export-ydpi="90" />
  <path
     style="fill:none;stroke:#000000;stroke-width:1;stroke-linecap:butt;stroke-linejoin:miter;stroke-miterlimit:4;stroke-opacity:1;stroke-dasharray:none;stroke-dashoffset:0"
     d="m 15.260329,445.69934 c 38.93779,53.44212 110.969771,78.32232 175.094071,70.88472 13.40605,-3.511 26.11484,-10.0364 36.3345,-19.4562"
     id="path4523"
     inkscape:connector-curvature="0"
     inkscape:export-filename="/Users/krtonga/bash/code/projects/krtonga.github.io/public/VERS1bw.png"
     inkscape:export-xdpi="90"
     inkscape:export-ydpi="90" />
  <path
     style="fill:none;stroke:#000000;stroke-width:1;stroke-linecap:butt;stroke-linejoin:miter;stroke-miterlimit:4;stroke-opacity:1;stroke-dasharray:none;stroke-dashoffset:0"
     d="m 26.688899,407.12784 c 1.90044,49.40145 73.815341,76.48477 110.000001,47.1429"
     id="path4538"
     inkscape:connector-curvature="0"
     inkscape:export-filename="/Users/krtonga/bash/code/projects/krtonga.github.io/public/VERS1bw.png"
     inkscape:export-xdpi="90"
     inkscape:export-ydpi="90" />
  <path
     style="fill:none;stroke:#000000;stroke-width:1;stroke-linecap:butt;stroke-linejoin:miter;stroke-miterlimit:4;stroke-opacity:1;stroke-dasharray:none;stroke-dashoffset:0"
     d="m 32.403189,359.98504 c 13.80987,11.609 16.08808,33.17315 34.0059,40.74106 14.73494,9.77471 43.983041,21.97701 54.565401,0.68754"
     id="path4557"
     inkscape:connector-curvature="0"
     inkscape:export-filename="/Users/krtonga/bash/code/projects/krtonga.github.io/public/VERS1bw.png"
     inkscape:export-xdpi="90"
     inkscape:export-ydpi="90" />
  <path
     style="fill:none;stroke:#000000;stroke-width:1;stroke-linecap:butt;stroke-linejoin:miter;stroke-miterlimit:4;stroke-opacity:1;stroke-dasharray:none;stroke-dashoffset:0"
     d="m 46.688899,315.69934 c 8.39384,26.75717 48.36277,59.60607 71.428451,28.5714"
     id="path4567"
     inkscape:connector-curvature="0"
     inkscape:export-filename="/Users/krtonga/bash/code/projects/krtonga.github.io/public/VERS1bw.png"
     inkscape:export-xdpi="90"
     inkscape:export-ydpi="90" />
  <path
     style="fill:none;stroke:#000000;stroke-width:1;stroke-linecap:butt;stroke-linejoin:miter;stroke-miterlimit:4;stroke-opacity:1;stroke-dasharray:none;stroke-dashoffset:0"
     d="m 60.974609,265.69934 c 15.36575,4.17492 4.19538,44.4564 24.29886,59.15147 7.25649,5.08933 41.455481,-12.15398 44.272571,-24.86575"
     id="path4571"
     inkscape:connector-curvature="0"
     sodipodi:nodetypes="ccc"
     inkscape:export-filename="/Users/krtonga/bash/code/projects/krtonga.github.io/public/VERS1bw.png"
     inkscape:export-xdpi="90"
     inkscape:export-ydpi="90" />
  <path
     style="fill:none;stroke:#000000;stroke-width:1;stroke-linecap:butt;stroke-linejoin:miter;stroke-miterlimit:4;stroke-opacity:1;stroke-dasharray:none;stroke-dashoffset:0"
     d="m 78.117469,234.27074 c 13.89285,15.60114 -2.93376,48.33123 21.81276,55.29825 15.240131,2.07152 23.571651,-14.35449 33.901501,-22.44115"
     id="path4582"
     inkscape:connector-curvature="0"
     inkscape:export-filename="/Users/krtonga/bash/code/projects/krtonga.github.io/public/VERS1bw.png"
     inkscape:export-xdpi="90"
     inkscape:export-ydpi="90" />
  <path
     style="fill:none;stroke:#000000;stroke-width:1;stroke-linecap:butt;stroke-linejoin:miter;stroke-miterlimit:4;stroke-opacity:1;stroke-dasharray:none;stroke-dashoffset:0"
     d="m 88.117469,214.27074 c 1.56235,8.24856 4.67137,16.41515 9.56777,23.22781 7.333881,6.85183 20.136951,5.07434 26.050341,-2.84595 2.67039,-5.50188 12.12385,-8.15024 11.52471,-14.66756"
     id="path4618"
     inkscape:connector-curvature="0"
     inkscape:export-filename="/Users/krtonga/bash/code/projects/krtonga.github.io/public/VERS1bw.png"
     inkscape:export-xdpi="90"
     inkscape:export-ydpi="90" />
  <path
     style="fill:none;stroke:#000000;stroke-width:1;stroke-linecap:butt;stroke-linejoin:miter;stroke-miterlimit:4;stroke-opacity:1;stroke-dasharray:none;stroke-dashoffset:0"
     d="m 102.40318,174.27074 c 2.97496,6.81952 7.12391,14.70037 14.45813,17.38449 7.74615,0.78423 13.7153,-5.44704 20.21505,-8.68369 2.5309,-1.41747 5.34597,-4.08233 3.89825,-7.2722"
     id="path4627"
     inkscape:connector-curvature="0"
     inkscape:export-filename="/Users/krtonga/bash/code/projects/krtonga.github.io/public/VERS1bw.png"
     inkscape:export-xdpi="90"
     inkscape:export-ydpi="90" />
  <path
     style="fill:none;stroke:#000000;stroke-width:1;stroke-linecap:butt;stroke-linejoin:miter;stroke-miterlimit:4;stroke-opacity:1;stroke-dasharray:none;stroke-dashoffset:0"
     d="m 139.54604,79.985029 c -1.215,1.97747 -4.60979,4.71866 -2.79292,7.04377 2.11523,0.69482 4.34439,-0.36573 6.41491,-0.82239 1.62782,-0.74268 4.5797,-1.08476 3.39842,1.58856 0.23534,1.96655 3.15608,0.30025 4.52992,0.77246 2.23833,0.0204 4.50054,0.20398 6.72098,0.037 2.34827,-0.65461 1.90442,-3.42591 1.83756,-5.28645 -0.0321,-1.11111 -0.0738,-2.2219 -0.1089,-3.33291"
     id="path4637"
     inkscape:connector-curvature="0"
     inkscape:export-filename="/Users/krtonga/bash/code/projects/krtonga.github.io/public/VERS1bw.png"
     inkscape:export-xdpi="90"
     inkscape:export-ydpi="90" />
  <path
     style="fill:none;stroke:#000000;stroke-width:1;stroke-linecap:butt;stroke-linejoin:miter;stroke-miterlimit:4;stroke-opacity:1;stroke-dasharray:none;stroke-dashoffset:0"
     d="m 142.40318,62.842169 c 2.39548,0.0386 4.68757,1.51517 5.76532,3.64621 1.13637,1.53932 2.94966,2.56918 4.86097,2.71805 1.17321,-0.50107 2.55077,-0.54677 3.7343,-0.0532 1.68834,0.294 3.38649,-1.28948 3.24891,-2.98917 0.2174,-1.62188 0.52987,-3.39912 1.78325,-4.56836 0.18722,-0.10069 0.39432,-0.16832 0.60725,-0.18218"
     id="path4643"
     inkscape:connector-curvature="0" />
  <path
     style="fill:none;stroke:#000000;stroke-width:1;stroke-linecap:butt;stroke-linejoin:miter;stroke-miterlimit:4;stroke-opacity:1;stroke-dasharray:none;stroke-dashoffset:0"
     d="m 120.97461,329.98504 c 10.42166,-1.94773 22.18485,20.66897 31.33439,14.53995 l 0.0947,-0.25428"
     id="path4645"
     inkscape:connector-curvature="0"
     sodipodi:nodetypes="ccc"
     inkscape:export-filename="/Users/krtonga/bash/code/projects/krtonga.github.io/public/VERS1bw.png"
     inkscape:export-xdpi="90"
     inkscape:export-ydpi="90" />
  <path
     style="fill:none;stroke:#000000;stroke-width:1;stroke-linecap:butt;stroke-linejoin:miter;stroke-miterlimit:4;stroke-opacity:1;stroke-dasharray:none;stroke-dashoffset:0"
     d="m 120.97461,371.41364 c 11.183,15.57624 26.17111,37.58376 48.57143,31.42845"
     id="path4663"
     inkscape:connector-curvature="0"
     inkscape:export-filename="/Users/krtonga/bash/code/projects/krtonga.github.io/public/VERS1bw.png"
     inkscape:export-xdpi="90"
     inkscape:export-ydpi="90" />
  <path
     style="fill:none;stroke:#000000;stroke-width:1;stroke-linecap:butt;stroke-linejoin:miter;stroke-miterlimit:4;stroke-opacity:1;stroke-dasharray:none;stroke-dashoffset:0"
     d="m 128.11747,435.69934 c 6.23316,28.2301 43.90243,41.704 68.57142,31.42909"
     id="path4691"
     inkscape:connector-curvature="0"
     inkscape:export-filename="/Users/krtonga/bash/code/projects/krtonga.github.io/public/VERS1bw.png"
     inkscape:export-xdpi="90"
     inkscape:export-ydpi="90" />
  <text
     xml:space="preserve"
     style="font-size:40px;font-style:normal;font-weight:normal;line-height:125%;letter-spacing:0px;word-spacing:0px;fill:#000000;fill-opacity:1;stroke:none;font-family:Sans"
     x="-35"
     y="500"
     id="text3998"
     sodipodi:linespacing="125%"
     transform="translate(0,-432.63782)"><tspan
       sodipodi:role="line"
       id="tspan4000"
       x="-35"
       y="500" /></text>
</svg>
