<?xml version="1.0" encoding="UTF-8" standalone="no"?>
<!-- Created with Inkscape (http://www.inkscape.org/) -->

<svg
   xmlns:dc="http://purl.org/dc/elements/1.1/"
   xmlns:cc="http://creativecommons.org/ns#"
   xmlns:rdf="http://www.w3.org/1999/02/22-rdf-syntax-ns#"
   xmlns:svg="http://www.w3.org/2000/svg"
   xmlns="http://www.w3.org/2000/svg"
   xmlns:sodipodi="http://sodipodi.sourceforge.net/DTD/sodipodi-0.dtd"
   xmlns:inkscape="http://www.inkscape.org/namespaces/inkscape"
   version="1.1"
   width="215"
   height="296"
   id="svg5294"
   inkscape:version="0.48.2 r9819"
   sodipodi:docname="roots.svg">
  <sodipodi:namedview
     pagecolor="#ffffff"
     bordercolor="#666666"
     borderopacity="1"
     objecttolerance="10"
     gridtolerance="10"
     guidetolerance="10"
     inkscape:pageopacity="0"
     inkscape:pageshadow="2"
     inkscape:window-width="884"
     inkscape:window-height="604"
     id="namedview7"
     showgrid="false"
     inkscape:zoom="0.62125071"
     inkscape:cx="366.5"
     inkscape:cy="148"
     inkscape:window-x="0"
     inkscape:window-y="0"
     inkscape:window-maximized="0"
     inkscape:current-layer="svg5294" />
  <defs
     id="defs5296" />
  <metadata
     id="metadata5299">
    <rdf:RDF>
      <cc:Work
         rdf:about="">
        <dc:format>image/svg+xml</dc:format>
        <dc:type
           rdf:resource="http://purl.org/dc/dcmitype/StillImage" />
        <dc:title />
      </cc:Work>
    </rdf:RDF>
  </metadata>
  <path
     d="m 211.33112,135.9503 c -16.2345,-26.44962 -22.63108,-60.018162 -12.62016,-89.881172 -11.8537,18.16746 -1.68189,42.47265 -14.49351,60.265802 -14.35846,11.74685 -30.08912,-8.152352 -30.16368,-22.335282 -3.06164,-20.26463 1.34196,-40.67827 2.30128,-60.91019 2.21398,-6.518041 -1.74437,-27.8061 -9.47768,-19.5864105 -2.80503,17.7228205 -5.9463,35.3530405 -11.00408,52.5989805 -4.53369,17.87474 -8.84123,36.02968 -9.04243,54.567392 14.03864,10.60009 6.09777,-31.553422 15.86576,-15.679852 2.21055,11.691692 -3.02015,28.459682 9.94816,35.111222 13.69867,4.58488 24.55153,-19.05584 38.43313,-8.13562 11.05563,11.32811 17.15989,26.21085 24.14943,40.14144 -11.00051,14.78742 -12.93032,-12.99701 -18.42935,-19.37376 -7.17152,-13.02153 -25.23168,-13.79261 -31.88062,-0.13843 -12.33148,11.14087 -26.47368,-1.21223 -33.82773,-10.03401 -17.07022,1.93846 -6.89521,25.17862 -7.24407,36.49643 2.16454,13.16972 -4.67792,28.08097 -18.91064,30.00613 -12.800083,3.3218 -27.219593,5.50013 -35.947663,16.5884 -9.59118,12.33143 -13.11584,34.92702 -33.3183,33.23042 -11.70462,-1.5824 -42.5603399,-2.0715 -30.7531199,16.9623 1.56445,-14.8047 21.6841299,-3.7778 16.1990899,8.7626 -0.16611,7.193 -14.5027499,17.5075 -3.04469,21.5735 7.28219,-14.6059 10.72911,-34.2934 27.21943,-42.036 16.70179,2.2469 25.80045,-14.20839 31.6299,-27.32823 8.38226,-13.07221 32.856113,-10.31625 35.011423,6.16476 3.63929,15.75737 -25.360753,19.04017 -23.514783,2.74893 -5.47746,16.63264 24.806903,28.24284 31.160783,11.27474 6.07859,-14.54847 -8.1101,-31.48693 3.03913,-44.77212 14.33104,-8.53241 3.00158,-28.2706 13.16164,-39.09721 7.44357,-1.09956 20.0937,7.19647 24.7167,-4.82635 16.78021,-8.22194 37.74816,8.57112 34.91971,26.69109 -0.263,16.75711 -23.89726,28.58903 -35.44166,14.76598 -6.28057,-9.19753 -2.74562,-26.1408 9.20082,-28.40102 11.05594,-1.35434 13.70566,17.40708 0.72922,14.58554"
     id="path5410"
     style="fill:none;stroke:#000000;stroke-width:1px;stroke-linecap:butt;stroke-linejoin:miter;stroke-opacity:1"
     inkscape:connector-curvature="0" />
</svg>
