<?xml version="1.0" encoding="UTF-8" standalone="no"?>
<!-- Created with Inkscape (http://www.inkscape.org/) -->

<svg
   xmlns:dc="http://purl.org/dc/elements/1.1/"
   xmlns:cc="http://creativecommons.org/ns#"
   xmlns:rdf="http://www.w3.org/1999/02/22-rdf-syntax-ns#"
   xmlns:svg="http://www.w3.org/2000/svg"
   xmlns="http://www.w3.org/2000/svg"
   xmlns:sodipodi="http://sodipodi.sourceforge.net/DTD/sodipodi-0.dtd"
   xmlns:inkscape="http://www.inkscape.org/namespaces/inkscape"
   width="632.09003"
   height="208"
   id="svg5294"
   version="1.1"
   inkscape:version="0.48.2 r9819"
   sodipodi:docname="travel.svg"
   inkscape:export-filename="/Users/krtonga/bash/code/projects/krtonga.github.io/public/VERS2.png"
   inkscape:export-xdpi="200"
   inkscape:export-ydpi="200">
  <defs
     id="defs5296" />
  <sodipodi:namedview
     id="base"
     pagecolor="#ffffff"
     bordercolor="#666666"
     borderopacity="1.0"
     inkscape:pageopacity="0.0"
     inkscape:pageshadow="2"
     inkscape:zoom="1.4142136"
     inkscape:cx="322.12391"
     inkscape:cy="158.19344"
     inkscape:document-units="px"
     inkscape:current-layer="svg5294"
     showgrid="false"
     inkscape:window-width="1207"
     inkscape:window-height="671"
     inkscape:window-x="53"
     inkscape:window-y="7"
     inkscape:window-maximized="0" />
  <metadata
     id="metadata5299">
    <rdf:RDF>
      <cc:Work
         rdf:about="">
        <dc:format>image/svg+xml</dc:format>
        <dc:type
           rdf:resource="http://purl.org/dc/dcmitype/StillImage" />
        <dc:title />
      </cc:Work>
    </rdf:RDF>
  </metadata>
  <path
     style="fill:none;stroke:#000000;stroke-width:1px;stroke-linecap:butt;stroke-linejoin:miter;stroke-opacity:1"
     d="m 51.84062,142.53282 c -20.23617,-7.68047 -61.794898,-34.36008 -14.665782,-27.66201 37.623728,22.04711 71.371372,-10.77347 101.950492,-6.25424 -11.1909,15.19554 -68.503404,26.96628 -19.6067,33.76833 20.27336,-7.45595 60.48745,1.67962 25.75778,23.08676 2.21256,15.2156 -35.30122,-23.02304 -57.070855,-14.77474 -39.529441,-13.19477 0.99796,1.9504 2.19298,22.41924 -39.322398,-9.3149 -26.788328,-35.82441 -71.783637,-33.68912 -45.282509,-3.80392 5.66343,23.08112 13.995301,36.27412 -27.6847324,23.5789 47.325966,6.796 64.183586,6.6108 9.315125,-34.52954 21.406095,-22.1214 31.471715,2.0651 57.86104,18.4896 61.00489,-57.33854 3.81732,-60.24273 21.83446,-12.9023 37.96415,-10.56638 9.17349,-21.1888 -22.94242,3.73524 -7.55092,-15.817473 4.86494,-6.641923 -9.51206,-5.94835 -1.23815,-18.31854 -2.84691,-26.81302 0.18649,-4.6459 7.58096,-15.62024 8.43241,-18.21406 1.0758,-3.27728 -6.8162,-3.7453 -16.19933,-7.77522 -2.20182,-1.18472 1.07904,5.24882 -1.87841,3.75338 -9.56106,-4.83458 -18.4839,-1.87499 -9.08858,6.42083 7.12779,6.29364 11.11432,16.29238 -0.8158,8.95997 -22.99565,2.45648 -15.17312,-5.22326 -16.81677,-7.34895 3.40868,-45.31304 -25.557772,17.48386 -49.991794,8.8399 -22.108574,7.94462 -20.949706,5.58344 -27.075762,15.83424 -3.428088,5.73626 5.788873,2.35893 6.7288,4.26962 1.134281,2.30578 -5.062026,0.27645 -5.539455,5.00125 -0.406757,4.0254 4.725981,0.83955 7.782785,0.33692 4.357646,-0.71652 -4.907478,5.15189 -3.005009,6.79265 7.274354,3.413613 9.940812,3.464973 12.934871,1.55221 -15.944435,33.575663 -2.598152,11.157183 3.505126,-2.69415 0.898995,-2.04027 -0.29077,-6.08637 3.147907,-6.98987 7.611412,-1.99988 24.066955,-0.44974 35.998246,8.55778 7.607745,12.982233 9.014665,8.839203 16.373565,11.440743 12.17319,4.30349 1.97375,-19.986833 5.83252,-24.136243 3.9623,-4.26074 9.56755,-6.26415 18.36488,-1.96675 30.68841,-15.41207 57.1309,-73.57035 76.65631,-27.4437 -0.90357,26.08069 16.93584,22.40516 28.7101,11.21363 7.1004,-0.70461 13.41632,2.30203 14.92859,8.7887 2.12959,9.13459 9.47272,15.33125 19.85048,19.56361 12.00117,-7.06017 8.71111,-13.83217 7.05096,-22.95461 -0.87557,-4.81121 6.82586,-5.03671 -3.3262,-14.97736 5.68524,-36.83077 5.47959,-13.5586 -12.19633,-18.33635 -22.50037,-11.76754 -10.51052,-11.78169 5.33948,-1.92894 5.53155,3.43854 22.53453,-25.30336 2.0258,-13.035 -20.39021,-4.18823 -16.78088,1.93209 -25.72313,7.57286 -5.41678,1.3628 -10.79327,1.2267 -7.56519,4.31661 2.64219,2.5291 -13.99176,3.27146 -11.11266,-4.30603 19.80272,-2.57628 -20.66635,-13.64698 1.74241,-2.83658 4.73418,2.28386 -4.22732,-0.42406 -2.20546,3.75669 0.84691,1.75121 -10.26211,7.15863 -14.31618,11.66594 -7.37483,27.94298 -10.78043,46.4477 28.18663,34.67603 33.07857,-0.51027 28.7182,59.966163 -0.48684,24.485903 -14.98213,-40.764523 -27.41825,22.6399 6.21093,21.72378 15.11832,1.18134 51.51893,4.75502 16.76183,15.48478 -14.6607,-3.45606 -68.23785,-17.33894 -38.21912,8.91052 28.00687,6.567 83.29687,11.63214 81.61683,-16.88701 -11.01571,-23.85581 0.60375,-74.491453 26.46688,-92.075253 -0.79626,41.77354 35.36642,71.727903 52.30172,107.223663 0.93925,27.54374 -101.59333,-4.1819 -57.08013,-40.49742 7.28691,-19.867333 1.87407,-51.182433 0.94121,-13.135993 -0.1852,29.437113 -10.97897,70.366853 -46.44981,67.334053 21.25788,16.4544 66.40276,17.4021 65.02625,5.8974 21.93435,-4.3834 18.53134,16.7478 15.34116,7.8309 5.5033,-25.29354 30.20053,-8.8865 19.74552,-0.8105 21.16965,34.8239 -52.45493,9.7901 -72.80447,14.977 -44.5713,1.8891 -64.42702,-40.93684 -110.34766,-39.57164 -5.60883,-9.65776 9.50115,-30.52656 6.37135,-40.22944 -2.80637,-8.70017 7.24879,-14.843873 -17.28495,-7.4174 -3.21519,-5.219153 -8.302,-2.15157 -13.95424,-2.74318 -23.88434,6.34473 -17.35496,19.42185 -6.99357,29.8959 10.36139,10.47405 7.30479,-10.90496 15.99848,14.27752 2.76531,20.59604 18.29466,29.78474 21.79477,26.85714 -11.00735,-6.6258 -5.46361,-11.2311 -8.16879,-17.51654 14.96715,10.82674 21.6654,30.65744 41.32668,19.07864 -10.20639,30.5054 50.35118,9.0793 71.24717,25.1561 30.22372,20.0777 114.80412,16.1752 81.88051,-35.1916 53.51651,-9.04754 -36.06701,-39.31848 7.87255,-39.8596 47.51415,-0.85342 95.12057,14.16657 142.21489,-1.279 36.19739,4.40191 52.53762,-32.377743 45.82487,-39.983833 -4.84849,-6.50006 -9.05101,-15.52699 -8.56626,-22.8107 -9.08015,-3.52943 -5.36752,-10.17045 -5.72326,-15.38414 -0.32171,-4.71493 8.66406,-1.63076 6.50136,-5.32804 -16.17764,-27.65682 10.61324,-34.4124403 37.18391,-27.71733 30.90766,-6.2257303 -56.28054,33.61702 -4.17195,39.26634 -30.97792,-2.55556 -18.60617,1.36611 -13.83429,7.65776 4.508,-2.45376 8.23024,-1.83269 12.21213,0.64959 -3.89154,-2.1788 -6.29489,0.65001 -9.64937,0.9007 -10.63977,0.79512 11.47616,11.03466 -14.54154,7.9638 -2.82275,24.37466 35.57701,-6.2527 1.35184,15.16966 21.15603,15.22091 11.24351,-20.28146 42.44399,8.4053 -2.56139,24.087883 -33.0582,15.363473 -50.69902,32.408343 22.74133,21.40191 10.41254,-13.44304 14.23005,1.60864 9.85456,28.72417 -3.87067,39.69331 -21.62629,14.82755 7.4525,-27.33618 11.8719,-17.24519 13.6893,1.39824 14.77062,-11.5679 -19.55061,5.47078 -20.57772,-4.2162 -18.67324,-29.82485 -1.1146,6.68075 -18.01529,21.87788 -0.38048,26.36104 -30.8999,-11.7195 -11.68429,-24.74008 -29.0514,-12.58442 -26.5603,43.77302 -55.3518,10.78458 -26.30274,-18.20244 -21.19407,35.72624 -42.87078,6.9417 -29.60949,-13.24757 -61.44937,-38.92204 -24.26649,-63.354033 16.03428,-23.77192 56.31376,-81.0716103 78.78848,-56.55106 -18.97999,21.96573 -61.25733,69.743633 -55.0537,81.765923 31.72594,-24.848823 40.17891,-86.428923 84.77236,-87.401573 27.7174,0.53801 84.26587,83.938413 38.97155,36.29159 -8.17451,-22.01385 -61.19388,-46.24807 -61.86559,-19.04196 13.0911,-5.45703 53.8814,-0.86496 44.5241,11.41991 -17.95503,-18.01246 -87.39231,4.83317 -34.05709,3.41689 28.52931,-7.14627 78.32266,31.83261 23.58503,12.30467 -17.73629,-13.48759 -82.15241,8.35136 -34.22332,8.19846 19.29337,-15.29279 110.27414,19.09984 52.42064,13.20818 -21.96722,0.89976 -79.02365,-14.73605 -82.38353,8.01234 22.04578,17.925133 89.50286,-10.01662 91.81129,14.807513 -33.31938,4.5453 -79.15476,2.97634 -105.30839,-10.08176 24.51374,-31.086473 40.82707,-82.809683 78.81096,-88.676883 -10.49576,-26.52983 -93.42253,-7.8795403 -57.80977,8.28132 5.7755,-2.01196 15.69948,-7.394 20.42935,-0.4408"
     id="path3155"
     inkscape:connector-curvature="0"
     sodipodi:nodetypes="cccccccccccccccscsscccssssccsscsscccscsccsccscsscccccccccccccccccsccsccccccccccssccccsccccccccccccccccccccccccccccc" />
</svg>
