<?xml version="1.0" encoding="UTF-8" standalone="no"?>
<!-- Created with Inkscape (http://www.inkscape.org/) -->

<svg
   xmlns:dc="http://purl.org/dc/elements/1.1/"
   xmlns:cc="http://creativecommons.org/ns#"
   xmlns:rdf="http://www.w3.org/1999/02/22-rdf-syntax-ns#"
   xmlns:svg="http://www.w3.org/2000/svg"
   xmlns="http://www.w3.org/2000/svg"
   xmlns:sodipodi="http://sodipodi.sourceforge.net/DTD/sodipodi-0.dtd"
   xmlns:inkscape="http://www.inkscape.org/namespaces/inkscape"
   width="632.09003"
   height="208"
   id="svg5294"
   version="1.1"
   inkscape:version="0.48.2 r9819"
   sodipodi:docname="travel.svg"
   inkscape:export-filename="/Users/krtonga/bash/code/projects/krtonga.github.io/public/VERS2.png"
   inkscape:export-xdpi="200"
   inkscape:export-ydpi="200">
  <defs
     id="defs5296" />
  <sodipodi:namedview
     id="base"
     pagecolor="#ffffff"
     bordercolor="#666666"
     borderopacity="1.0"
     inkscape:pageopacity="0.0"
     inkscape:pageshadow="2"
     inkscape:zoom="1.4142136"
     inkscape:cx="565.24385"
     inkscape:cy="101.6249"
     inkscape:document-units="px"
     inkscape:current-layer="svg5294"
     showgrid="false"
     inkscape:window-width="1207"
     inkscape:window-height="671"
     inkscape:window-x="53"
     inkscape:window-y="7"
     inkscape:window-maximized="0" />
  <metadata
     id="metadata5299">
    <rdf:RDF>
      <cc:Work
         rdf:about="">
        <dc:format>image/svg+xml</dc:format>
        <dc:type
           rdf:resource="http://purl.org/dc/dcmitype/StillImage" />
        <dc:title></dc:title>
      </cc:Work>
    </rdf:RDF>
  </metadata>
  <path
     style="fill:none;stroke:#000000;stroke-width:1px;stroke-linecap:butt;stroke-linejoin:miter;stroke-opacity:1"
     d="m 51.84062,142.53282 c -20.23617,-7.68047 -61.794898,-34.36008 -14.665782,-27.66201 37.623728,22.04711 71.371372,-10.77347 101.950492,-6.25424 -11.1909,15.19554 -68.503404,26.96628 -19.6067,33.76833 20.27336,-7.45595 60.48745,1.67962 25.75778,23.08676 2.21256,15.2156 -35.30122,-23.02304 -57.070855,-14.77474 -39.529441,-13.19477 0.99796,1.9504 2.19298,22.41924 -39.322398,-9.3149 -26.788328,-35.82441 -71.783637,-33.68912 -45.282509,-3.80392 5.66343,23.08112 13.995301,36.27412 -27.6847324,23.5789 47.325966,6.796 64.183586,6.6108 9.315125,-34.52954 21.406095,-22.1214 31.471715,2.0651 57.86104,18.4896 61.00489,-57.33854 3.81732,-60.24273 21.83446,-12.9023 37.96415,-10.56638 9.17349,-21.1888 -22.94242,3.73524 -7.55092,-15.817473 4.86494,-6.641923 -9.51206,-5.94835 -1.23815,-18.31854 -2.84691,-26.81302 0.18649,-4.6459 7.58096,-15.62024 8.43241,-18.21406 1.0758,-3.27728 -6.8162,-3.7453 -16.19933,-7.77522 -2.20182,-1.18472 1.07904,5.24882 -1.87841,3.75338 -9.56106,-4.83458 -18.4839,-1.87499 -9.08858,6.42083 7.12779,6.29364 11.11432,16.29238 -0.8158,8.95997 -22.99565,2.45648 -15.17312,-5.22326 -16.81677,-7.34895 3.40868,-45.31304 -25.557772,17.48386 -49.991794,8.8399 -22.108574,7.94462 -20.949706,5.58344 -27.075762,15.83424 -3.428088,5.73626 5.788873,2.35893 6.7288,4.26962 1.134281,2.30578 -5.062026,0.27645 -5.539455,5.00125 -0.406757,4.0254 4.725981,0.83955 7.782785,0.33692 4.357646,-0.71652 -4.907478,5.15189 -3.005009,6.79265 7.274354,3.413613 9.940812,3.464973 12.934871,1.55221 -15.944435,33.575663 -2.598152,11.157183 3.505126,-2.69415 0.898995,-2.04027 -0.29077,-6.08637 3.147907,-6.98987 7.611412,-1.99988 24.066955,-0.44974 35.998246,8.55778 7.607745,12.982233 9.014665,8.839203 16.373565,11.440743 12.17319,4.30349 1.97375,-19.986833 5.83252,-24.136243 3.9623,-4.26074 9.56755,-6.26415 18.36488,-1.96675 30.68841,-15.41207 57.1309,-73.57035 76.65631,-27.4437 -0.90357,26.08069 16.93584,22.40516 28.7101,11.21363 7.1004,-0.70461 13.41632,2.30203 14.92859,8.7887 2.12959,9.13459 9.47272,15.33125 19.85048,19.56361 12.00117,-7.06017 8.71111,-13.83217 7.05096,-22.95461 -0.87557,-4.81121 6.82586,-5.03671 -3.3262,-14.97736 5.68524,-36.83077 5.47959,-13.5586 -12.19633,-18.33635 -22.50037,-11.76754 -10.51052,-11.78169 5.33948,-1.92894 5.53155,3.43854 22.53453,-25.30336 2.0258,-13.035 -20.39021,-4.18823 -16.78088,1.93209 -25.72313,7.57286 -5.41678,1.3628 -10.79327,1.2267 -7.56519,4.31661 2.64219,2.5291 -13.99176,3.27146 -11.11266,-4.30603 19.80272,-2.57628 -20.66635,-13.64698 1.74241,-2.83658 4.73418,2.28386 -4.22732,-0.42406 -2.20546,3.75669 0.84691,1.75121 -10.26211,7.15863 -14.31618,11.66594 -7.37483,27.94298 -10.78043,46.4477 28.18663,34.67603 33.07857,-0.51027 28.7182,59.966163 -0.48684,24.485903 -14.98213,-40.764523 -27.41825,22.6399 6.21093,21.72378 15.11832,1.18134 51.51893,4.75502 16.76183,15.48478 -14.6607,-3.45606 -68.23785,-17.33894 -38.21912,8.91052 28.00687,6.567 83.29687,11.63214 81.61683,-16.88701 -11.01571,-23.85581 0.60375,-74.491453 26.46688,-92.075253 -0.79626,41.77354 35.36642,71.727903 52.30172,107.223663 0.93925,27.54374 -101.59333,-4.1819 -57.08013,-40.49742 7.28691,-19.867333 1.87407,-51.182433 0.94121,-13.135993 -0.1852,29.437113 -10.97897,70.366853 -46.44981,67.334053 21.25788,16.4544 66.40276,17.4021 65.02625,5.8974 21.93435,-4.3834 18.53134,16.7478 15.34116,7.8309 5.5033,-25.29354 30.20053,-8.8865 19.74552,-0.8105 21.16965,34.8239 -52.45493,9.7901 -72.80447,14.977 -44.5713,1.8891 -64.42702,-40.93684 -110.34766,-39.57164 -5.60883,-9.65776 9.50115,-30.52656 6.37135,-40.22944 -2.80637,-8.70017 7.24879,-14.843873 -17.28495,-7.4174 -3.21519,-5.219153 -8.302,-2.15157 -13.95424,-2.74318 -23.88434,6.34473 -17.35496,19.42185 -6.99357,29.8959 10.36139,10.47405 7.30479,-10.90496 15.99848,14.27752 2.76531,20.59604 18.29466,29.78474 21.79477,26.85714 -11.00735,-6.6258 -5.46361,-11.2311 -8.16879,-17.51654 14.96715,10.82674 21.6654,30.65744 41.32668,19.07864 -10.20639,30.5054 50.35118,9.0793 71.24717,25.1561 30.22372,20.0777 114.80412,16.1752 81.88051,-35.1916 53.51651,-9.04754 -36.06701,-39.31848 7.87255,-39.8596 47.51415,-0.85342 95.12057,14.16657 142.21489,-1.279 36.19739,4.40191 52.53762,-32.377743 45.82487,-39.983833 -4.84849,-6.50006 -9.05101,-15.52699 -8.56626,-22.8107 -9.08015,-3.52943 -5.36752,-10.17045 -5.72326,-15.38414 -0.32171,-4.71493 8.66406,-1.63076 6.50136,-5.32804 -16.17764,-27.65682 10.61324,-34.4124403 37.18391,-27.71733 30.90766,-6.2257303 -56.28054,33.61702 -4.17195,39.26634 -30.97792,-2.55556 -18.60617,1.36611 -13.83429,7.65776 4.508,-2.45376 8.23024,-1.83269 12.21213,0.64959 -3.89154,-2.1788 -6.29489,0.65001 -9.64937,0.9007 -10.63977,0.79512 11.47616,11.03466 -14.54154,7.9638 -2.82275,24.37466 35.57701,-6.2527 1.35184,15.16966 21.15603,15.22091 11.24351,-20.28146 42.44399,8.4053 -39.07296,41.889293 -37.29856,30.643613 -36.46897,34.016983 -0.90901,10.27339 -25.40711,21.8438 -28.51471,12.00959 -18.67324,-29.82485 -1.1146,6.68075 -18.01529,21.87788 -0.38048,26.36104 -30.8999,-11.7195 -11.68429,-24.74008 -29.0514,-12.58442 -26.5603,43.77302 -55.3518,10.78458 -26.30274,-18.20244 -21.19407,35.72624 -42.87078,6.9417 -29.60949,-13.24757 -61.44937,-38.92204 -24.26649,-63.354033 16.03428,-23.77192 56.31376,-81.0716103 78.78848,-56.55106 -18.97999,21.96573 -61.25733,69.743633 -55.0537,81.765923 31.72594,-24.848823 40.17891,-86.428923 84.77236,-87.401573 27.7174,0.53801 84.26587,83.938413 38.97155,36.29159 -8.17451,-22.01385 -61.19388,-46.24807 -61.86559,-19.04196 13.0911,-5.45703 53.8814,-0.86496 44.5241,11.41991 -17.95503,-18.01246 -87.39231,4.83317 -34.05709,3.41689 28.52931,-7.14627 78.32266,31.83261 23.58503,12.30467 -17.73629,-13.48759 -82.15241,8.35136 -34.22332,8.19846 19.29337,-15.29279 110.27414,19.09984 52.42064,13.20818 -21.96722,0.89976 -79.02365,-14.73605 -82.38353,8.01234 22.04578,17.925133 89.50286,-10.01662 91.81129,14.807513 -33.31938,4.5453 -79.15476,2.97634 -105.30839,-10.08176 24.51374,-31.086473 40.82707,-82.809683 78.81096,-88.676883 -10.49576,-26.52983 -93.42253,-7.8795403 -57.80977,8.28132 5.7755,-2.01196 15.69948,-7.394 20.42935,-0.4408"
     id="path3155"
     inkscape:connector-curvature="0"
     sodipodi:nodetypes="cccccccccccccccscsscccssssccsscsscccscsccsccscsscccccccccccccccccsccsccccccccccssccccscccccccccccccccccccccccccc" />
  <text
     xml:space="preserve"
     style="font-size:40px;font-style:normal;font-weight:normal;line-height:125%;letter-spacing:0px;word-spacing:0px;fill:#b3b3b3;fill-opacity:1;stroke:none;font-family:Sans"
     x="323.1478"
     y="-4.8391304"
     id="text2982"
     sodipodi:linespacing="125%"
     inkscape:export-filename="/Users/krtonga/bash/code/projects/krtonga.github.io/public/text-travel.png"
     inkscape:export-xdpi="200"
     inkscape:export-ydpi="200"><tspan
       sodipodi:role="line"
       id="tspan2984"
       x="323.1478"
       y="-4.8391304"
       style="font-style:normal;font-variant:normal;font-weight:normal;font-stretch:normal;font-family:Savoye LET;-inkscape-font-specification:Savoye LET;fill:#b3b3b3">...Not all who travel are lost...</tspan></text>
  <path
     style="fill:none;stroke:#000000;stroke-width:1px;stroke-linecap:butt;stroke-linejoin:miter;stroke-opacity:1"
     d="m 415.77878,181.12994 c 2.9322,-3.09523 6.19729,-6.77402 10.75552,-7.03186 3.15194,0.0296 3.93182,3.85652 3.073,6.30404 -1.86344,5.53888 -5.29161,10.3897 -7.14222,15.93618 -3.02586,7.02353 -6.47117,13.85627 -9.54717,20.85725 2.68412,-6.49853 7.05348,-12.08362 10.67932,-18.05772 4.23033,-6.44671 9.13599,-12.74625 15.82199,-16.79766 0.6467,-3.37256 6.35073,-1.60916 3.63466,1.30522 -3.22715,4.62697 -5.71667,9.72454 -8.39366,14.68069 -2.49176,4.9112 -4.64358,10.05264 -5.71555,15.47581 -1.58248,1.99216 -2.58018,6.98017 0.79888,7.47412 3.1003,-0.75533 4.57268,-4.18602 5.76665,-6.84442 1.85848,-4.84116 2.81459,-10.79569 7.67908,-13.65143 1.47022,-0.9876 4.77076,-3.75569 5.22084,-3.39072 -1.94989,2.29247 -4.17234,4.55393 -4.73655,7.63667 -0.87748,2.99563 -1.46068,6.7523 0.73423,9.31834 2.54227,1.73152 5.10196,-1.18122 6.28806,-3.2505 1.29257,-3.14836 2.45064,-6.47279 2.68766,-9.89792 0.17711,-4.04855 -6.3023,-1.07893 -3.90189,1.86591 2.17284,2.7934 6.18895,0.47656 7.23255,-2.23256 2.34766,-3.98936 3.29129,-8.60248 5.3825,-12.71605 0.89921,-2.04722 2.50102,-6.75329 3.68672,-6.75713 -0.52846,2.56939 -1.6214,5.00062 -2.06462,7.60533 -1.28466,5.03624 -1.74936,10.23001 -2.22365,15.37878 -1.07474,4.59151 -5.05258,8.64841 -3.9079,13.6243 1.45888,3.73534 6.29728,4.36656 9.74117,3.37502"
     id="path2988"
     inkscape:connector-curvature="0"
     sodipodi:nodetypes="cccccccccccccccccccccccccc" />
  <path
     style="fill:none;stroke:#000000;stroke-width:1px;stroke-linecap:butt;stroke-linejoin:miter;stroke-opacity:1"
     d="m 451.13411,187.4939 c 9.90232,2.26096 20.18287,-0.15335 29.50621,-3.6318 4.43454,-1.77303 15.93145,-4.50569 19.67483,-7.51912 -9.68106,10.18218 -19.91478,24.99239 -25.51437,37.45847 -1.53046,2.78035 -1.76042,7.24575 1.33829,9.01849 3.31826,0.919 4.62357,-3.41023 5.18942,-5.90583 3.80831,-14.31588 15.64919,-25.25184 17.75838,-40.16818 0.22662,-1.77245 0.30655,-2.93429 -0.0416,-0.36922 -2.07112,12.1133 -10.48165,22.50552 -10.59339,35.0415 -0.39526,3.55903 5.10504,2.82314 7.21886,1.51415 5.25816,-3.43517 7.44481,-9.7181 10.01716,-15.14879 0.91681,-2.90783 3.66218,-5.53098 2.47554,-8.75413 -2.35293,-1.70111 -4.09388,3.30109 -5.24146,4.96898 -1.67742,3.68779 -3.58454,7.74409 -2.8973,11.89105 0.86789,3.06821 2.07194,7.15977 5.76984,7.64609 4.5843,0.0917 7.96621,-3.82903 10.59666,-7.11207 3.78163,-4.98617 6.42366,-11.40246 5.17569,-17.72439 -1.51358,-3.89023 -5.65251,0.0542 -6.82134,2.30526 -1.69015,2.71678 -2.8213,6.1262 -1.85185,9.29901 -1.16113,5.0257 -0.21886,11.36646 4.75442,14.03185 2.97312,1.66725 6.53869,1.85988 9.85361,1.44278"
     id="path2996"
     inkscape:connector-curvature="0"
     sodipodi:nodetypes="ccccccccccccccccccccc" />
  <path
     style="fill:none;stroke:#000000;stroke-width:1px;stroke-linecap:butt;stroke-linejoin:miter;stroke-opacity:1"
     d="m 543.7651,177.59441 c 1.71564,8.76911 -6.66188,14.31536 -10.56124,21.01889 -6.24856,4.31111 -3.8252,15.76709 4.68403,11.17293 4.51069,-0.71967 9.85053,-9.94735 6.02616,-1.63047 2.84779,11.3786 10.82417,-3.09684 11.79675,-8.27962 3.09562,-5.13523 -3.93663,-9.98967 3.59335,-11.31464 4.65767,-1.00451 8.2874,-12.93556 2.06966,-5.94108 -3.1153,7.05454 0.73415,15.33361 -3.65824,22.17046 -1.31063,3.66003 -8.37584,13.38718 -3.18725,5.40795 1.09357,-4.50705 9.69659,-11.05101 5.96798,-2.47846 -4.22798,4.83066 -1.54849,13.96841 3.72313,5.83521 3.23843,-2.47248 9.16907,-15.37907 2.04089,-8.36077 -1.42847,10.78232 14.57151,2.47711 7.85399,-3.8975 0.44481,-0.71446 5.56235,-5.39431 6.42035,-8.85416"
     id="path3006"
     inkscape:connector-curvature="0" />
</svg>
