<?xml version="1.0" encoding="UTF-8" standalone="no"?>
<!-- Created with Inkscape (http://www.inkscape.org/) -->

<svg
   xmlns:dc="http://purl.org/dc/elements/1.1/"
   xmlns:cc="http://creativecommons.org/ns#"
   xmlns:rdf="http://www.w3.org/1999/02/22-rdf-syntax-ns#"
   xmlns:svg="http://www.w3.org/2000/svg"
   xmlns="http://www.w3.org/2000/svg"
   xmlns:sodipodi="http://sodipodi.sourceforge.net/DTD/sodipodi-0.dtd"
   xmlns:inkscape="http://www.inkscape.org/namespaces/inkscape"
   width="522"
   height="33"
   id="svg5294"
   version="1.1"
   inkscape:version="0.48.2 r9819"
   sodipodi:docname="wave.svg"
   inkscape:export-filename="/Users/krtonga/bash/code/projects/krtonga.github.io/public/VERS2.png"
   inkscape:export-xdpi="200"
   inkscape:export-ydpi="200">
  <metadata
     id="metadata8">
    <rdf:RDF>
      <cc:Work
         rdf:about="">
        <dc:format>image/svg+xml</dc:format>
        <dc:type
           rdf:resource="http://purl.org/dc/dcmitype/StillImage" />
      </cc:Work>
    </rdf:RDF>
  </metadata>
  <defs
     id="defs5296" />
  <sodipodi:namedview
     id="base"
     pagecolor="#ffffff"
     bordercolor="#666666"
     borderopacity="1.0"
     inkscape:pageopacity="0.0"
     inkscape:pageshadow="2"
     inkscape:zoom="1"
     inkscape:cx="121.93603"
     inkscape:cy="-122.18828"
     inkscape:document-units="px"
     inkscape:current-layer="svg5294"
     showgrid="false"
     inkscape:window-width="1207"
     inkscape:window-height="671"
     inkscape:window-x="67"
     inkscape:window-y="1"
     inkscape:window-maximized="0" />
  <path
     style="fill:none;stroke:#0000ff;stroke-width:1;stroke-linecap:butt;stroke-linejoin:miter;stroke-miterlimit:4;stroke-opacity:1;stroke-dasharray:none;stroke-dashoffset:0"
     d="M 7.4474601,2.3432281 C 29.11661,-0.7920719 -14.27939,21.034528 10.5032,28.386728 c 19.20555,2.664 39.85942,-36.8641 68.63733,-24.2401999 -7.17404,3.393 -12.13153,14.0234999 8.07648,22.4603999 26.29219,9.1081 48.17904,-33.3218 74.09706,-23.1515999 -15.73117,8.6160999 -4.54423,34.1112999 21.10123,25.0270999 18.66736,-8.1984 30.47419,-32.5706999 56.32235,-24.5061999 -12.44804,10.9772999 4.61169,32.3124999 27.41681,26.1073999 23.4726,-0.9659 24.00432,-32.7368999 60.41973,-28.1176999 -14.22471,9.6614999 1.03302,32.7351999 28.37629,29.5306999 28.65181,-3.4628 44.41004,-36.7771999 70.47154,-28.4282999 -11.73382,21.9030999 18.82572,38.7191999 38.86332,22.3304999 11.78852,-7.5292 24.71122,-30.1948999 49.60336,-21.4120999 -10.51943,5.2219 -4.18416,32.8717999 9.24309,27.2210999"
     id="path6279"
     inkscape:connector-curvature="0"
     sodipodi:nodetypes="cccccccccccccc"
     inkscape:export-filename="/Users/krtonga/bash/code/projects/krtonga.github.io/public/VERS1bw.png"
     inkscape:export-xdpi="90"
     inkscape:export-ydpi="90" />
  <text
     xml:space="preserve"
     style="font-size:40px;font-style:normal;font-weight:normal;line-height:125%;letter-spacing:0px;word-spacing:0px;fill:#000000;fill-opacity:1;stroke:none;font-family:Sans"
     x="-35"
     y="500"
     id="text3998"
     sodipodi:linespacing="125%"
     transform="translate(0,-432.63782)"><tspan
       sodipodi:role="line"
       id="tspan4000"
       x="-35"
       y="500" /></text>
</svg>
